<svg width="25" height="16" viewBox="0 0 25 16" fill="none" xmlns="http://www.w3.org/2000/svg">
<path fill-rule="evenodd" clip-rule="evenodd" d="M11.8437 4.57292C11.8438 6.53637 10.2551 8.12968 8.29167 8.13542H1V1H8.29167C9.2365 1.00276 10.1415 1.38074 10.8077 2.05079C11.4738 2.72085 11.8465 3.62808 11.8437 4.57292V4.57292Z" stroke="#6C6C6C" stroke-linecap="round" stroke-linejoin="round"/>
<path fill-rule="evenodd" clip-rule="evenodd" d="M11.8437 11.6979C11.8438 13.6613 10.2551 15.2546 8.29167 15.2604H1V8.13538H8.29167C10.2551 8.14112 11.8438 9.73442 11.8437 11.6979V11.6979Z" stroke="#6C6C6C" stroke-linecap="round" stroke-linejoin="round"/>
<path d="M24.073 12.1458C23.0595 14.5638 20.376 15.8175 17.8711 15.0433C15.3662 14.2691 13.8582 11.72 14.3857 9.15182C14.9132 6.58364 17.304 4.83535 19.9112 5.11124C22.5185 5.38712 24.4905 7.59705 24.4688 10.2188H14.2813" stroke="#6C6C6C" stroke-linecap="round" stroke-linejoin="round"/>
<path d="M16.823 2.02087H21.9167" stroke="#6C6C6C" stroke-linecap="round" stroke-linejoin="round"/>
</svg>
