<svg width="40" height="40" viewBox="0 0 40 40" fill="none" xmlns="http://www.w3.org/2000/svg">
<path fill-rule="evenodd" clip-rule="evenodd" d="M20.4512 38.7505C30.8065 38.7505 39.2012 30.3558 39.2012 20.0005C39.2012 9.64515 30.8065 1.25049 20.4512 1.25049C10.0958 1.25049 1.70117 9.64515 1.70117 20.0005C1.70117 30.3558 10.0958 38.7505 20.4512 38.7505Z" stroke="white" stroke-width="1.5" stroke-linecap="round" stroke-linejoin="round"/>
<path d="M11.5176 3.51782C21.2702 10.9107 26.9949 22.4465 26.9842 34.6845C26.9842 35.6845 26.9454 36.6678 26.8676 37.6345" stroke="white" stroke-width="1.5" stroke-linecap="round" stroke-linejoin="round"/>
<path d="M34.4518 7.53369C27.1682 14.4919 17.4748 18.3621 7.40176 18.3337C5.528 18.3324 3.65668 18.1987 1.80176 17.9337" stroke="white" stroke-width="1.5" stroke-linecap="round" stroke-linejoin="round"/>
<path d="M5.86816 31.7836C13.1499 24.7668 22.8725 20.8527 32.9848 20.867C35.0482 20.878 37.1084 21.0283 39.1515 21.317" stroke="white" stroke-width="1.5" stroke-linecap="round" stroke-linejoin="round"/>
</svg>
