<svg width="23" height="25" viewBox="0 0 23 25" fill="none" xmlns="http://www.w3.org/2000/svg">
<path d="M4.34363 23.9583C6.3228 23.875 8.97905 23.9583 11.3124 23.9583C13.6457 23.9583 16.1978 23.802 18.1457 23.9583C18.9374 24.0208 20.3332 24.4895 20.979 24.0729C21.479 23.427 21.104 22.0416 21.2186 21.177C21.427 19.5312 22.2603 17.5625 20.0624 17.1458C19.1249 18 19.7603 18.552 19.2186 19.6145C18.5728 20.8958 16.2603 21.3437 14.0624 21.5104C12.177 21.6562 8.85405 21.8437 8.18738 20.5625C7.61447 19.5208 7.9478 18.052 7.9478 16.6666C7.8002 15.6199 7.88195 14.5536 8.18738 13.5416C10.5832 13.7187 13.6874 12.7395 15.3749 13.7812C16.5103 14.4791 15.8645 15.4166 17.177 15.8645C18.0728 15.625 17.854 14.7187 17.7915 13.6354C17.7915 12.9375 17.7915 10.9062 17.7915 10.1041C17.7915 9.06246 17.9999 8.02079 16.8124 8.02079C15.8749 8.74996 16.5832 9.54162 15.6145 10.2187C15.1641 10.4325 14.6751 10.5529 14.177 10.5729C12.139 10.7219 10.0907 10.6345 8.0728 10.3125C7.87459 8.3487 7.87459 6.36997 8.0728 4.40621C8.8853 3.59371 10.7603 3.57287 12.0311 3.57287C14.2499 3.57287 17.7186 3.77079 18.3853 4.87496C18.7395 5.47912 18.4582 6.48954 19.104 6.63537C21.1145 6.63537 20.4478 4.61454 20.4999 3.51037C20.6651 2.71558 20.7454 1.90547 20.7395 1.09371C20.3228 0.52079 19.0207 0.812456 18.6561 0.854123C14.5832 1.35412 8.12488 1.09371 3.78113 1.09371C3.2603 1.09371 2.35405 0.83329 1.97905 1.44787C1.6978 2.86454 3.56238 2.81246 4.20822 3.55204C5.24988 4.69787 4.81238 8.76037 4.81238 12.6458C4.81238 16.5312 5.24988 20.5833 4.20822 21.625C3.39572 22.4375 1.22905 22.0625 1.4478 23.8125C2.20822 24.3229 3.30197 23.9791 4.3228 23.927" stroke="#6C6C6C" stroke-linecap="round" stroke-linejoin="round"/>
</svg>
