<svg width="40" height="40" viewBox="0 0 40 40" fill="none" xmlns="http://www.w3.org/2000/svg">
<path fill-rule="evenodd" clip-rule="evenodd" d="M20.1982 38.75H2.86491C1.94443 38.75 1.19824 38.0038 1.19824 37.0833V2.91667C1.19824 1.99619 1.94443 1.25 2.86491 1.25H37.0316C37.9521 1.25 38.6982 1.99619 38.6982 2.91667V37.0833C38.6982 38.0038 37.9521 38.75 37.0316 38.75H26.8649V24.5833H31.1316C31.5554 24.5864 31.9141 24.2708 31.9649 23.85L32.5982 18.85C32.627 18.6122 32.5521 18.3736 32.3926 18.195C32.233 18.0163 32.0044 17.9149 31.7649 17.9167H26.8649V16.15C26.8649 15.403 27.1617 14.6865 27.6899 14.1583C28.2181 13.6301 28.9346 13.3333 29.6816 13.3333H32.6982C33.1585 13.3333 33.5316 12.9602 33.5316 12.5V7.5C33.5316 7.03976 33.1585 6.66667 32.6982 6.66667H29.6816C24.4441 6.66667 20.1982 10.9125 20.1982 16.15V17.9167H16.0316C15.5713 17.9167 15.1982 18.2898 15.1982 18.75V23.75C15.1982 24.2102 15.5713 24.5833 16.0316 24.5833H20.1982V38.75Z" stroke="white" stroke-width="1.5" stroke-linecap="round" stroke-linejoin="round"/>
</svg>
