<svg width="25" height="25" viewBox="0 0 25 25" fill="none" xmlns="http://www.w3.org/2000/svg">
<path fill-rule="evenodd" clip-rule="evenodd" d="M15.0103 23.2813C15.0103 23.4452 15.0875 23.5996 15.2187 23.698C15.3498 23.7963 15.5196 23.8272 15.677 23.7813C21.286 22.1622 24.8478 16.6615 24.0302 10.881C23.2127 5.10056 18.265 0.803467 12.427 0.803467C6.58897 0.803467 1.64132 5.10056 0.823724 10.881C0.00612816 16.6615 3.56797 22.1622 9.17699 23.7813C9.33436 23.8272 9.50417 23.7963 9.63532 23.698C9.76647 23.5996 9.84365 23.4452 9.84365 23.2813V20.8334C8.36033 21.2815 6.78475 20.496 6.2499 19.0417C5.95871 18.1552 5.47492 17.3441 4.83324 16.6667C7.80199 17.3855 7.85407 19.3125 9.8749 18.4063C9.93598 17.7303 10.1613 17.0795 10.5312 16.5105C8.23948 16.25 5.82282 15.8855 5.82282 11.9271C5.80294 10.9043 6.17571 9.91271 6.86449 9.15628C6.55074 8.26644 6.58799 7.29046 6.96865 6.42712C6.96865 6.42712 7.83324 6.14587 9.8124 7.46879C11.5166 6.99807 13.3165 6.99807 15.0207 7.46879C16.9895 6.13545 17.8541 6.42712 17.8541 6.42712C18.2347 7.29046 18.272 8.26644 17.9582 9.15628C18.6479 9.91214 19.0209 10.9041 18.9999 11.9271C18.9999 15.8959 16.5832 16.25 14.2812 16.5C14.7742 17.2109 15.0228 18.0627 14.9895 18.9271L15.0103 23.2813Z" stroke="#6C6C6C" stroke-linecap="round" stroke-linejoin="round"/>
</svg>
