<svg width="40" height="38" viewBox="0 0 40 38" fill="none" xmlns="http://www.w3.org/2000/svg">
<path d="M9.15359 36.7167V37.4667C9.56781 37.4667 9.90359 37.131 9.90359 36.7167H9.15359ZM1.05359 36.7167H0.303593C0.303593 37.131 0.63938 37.4667 1.05359 37.4667V36.7167ZM1.05359 13.5001V12.7501C0.63938 12.7501 0.303593 13.0859 0.303593 13.5001H1.05359ZM9.15359 13.5001H9.90359C9.90359 13.0859 9.56781 12.7501 9.15359 12.7501V13.5001ZM25.9698 21.067V21.817C26.384 21.817 26.7198 21.4812 26.7198 21.067H25.9698ZM22.4031 36.7169V37.4669C22.8173 37.4669 23.1531 37.1312 23.1531 36.7169H22.4031ZM13.8865 36.7169H13.1365C13.1365 37.1312 13.4722 37.4669 13.8865 37.4669V36.7169ZM13.8865 13.5003V12.7503C13.4722 12.7503 13.1365 13.0861 13.1365 13.5003H13.8865ZM22.4031 13.5003H23.1531C23.1531 13.0861 22.8173 12.7503 22.4031 12.7503V13.5003ZM22.4031 16.1503H21.6531C21.6531 16.4424 21.8227 16.7079 22.0876 16.8307C22.3526 16.9536 22.6648 16.9114 22.8877 16.7227L22.4031 16.1503ZM29.5365 13.4836V12.7336L29.5267 12.7337L29.5365 13.4836ZM38.4865 36.7169V37.4669C38.9007 37.4669 39.2365 37.1312 39.2365 36.7169H38.4865ZM29.5365 36.7169H28.7865C28.7865 37.1312 29.1222 37.4669 29.5365 37.4669V36.7169ZM29.5365 24.6336L28.7865 24.6301V24.6336H29.5365ZM25.9698 21.0503L25.9698 20.3003C25.5556 20.3003 25.2198 20.6361 25.2198 21.0503H25.9698ZM9.30306 5.46696H10.0531C10.0531 5.05275 9.71727 4.71696 9.30306 4.71696V5.46696ZM5.13639 1.30029L5.14239 0.550293H5.13639V1.30029ZM9.26973 5.46696L8.51973 5.46694C8.51972 5.66585 8.59873 5.85662 8.73939 5.99728C8.88004 6.13794 9.07081 6.21696 9.26973 6.21696V5.46696ZM9.15359 35.9667H1.05359V37.4667H9.15359V35.9667ZM1.80359 36.7167V13.5001H0.303593V36.7167H1.80359ZM1.05359 14.2501H9.15359V12.7501H1.05359V14.2501ZM8.40359 13.5001V36.7167H9.90359V13.5001H8.40359ZM25.9698 20.317C23.5858 20.317 21.6531 22.2496 21.6531 24.6336H23.1531C23.1531 23.078 24.4142 21.817 25.9698 21.817V20.317ZM21.6531 24.6336V36.7169H23.1531V24.6336H21.6531ZM22.4031 35.9669H13.8865V37.4669H22.4031V35.9669ZM14.6365 36.7169V13.5003H13.1365V36.7169H14.6365ZM13.8865 14.2503H22.4031V12.7503H13.8865V14.2503ZM21.6531 13.5003V16.1503H23.1531V13.5003H21.6531ZM22.8877 16.7227C24.751 15.1453 27.1051 14.2653 29.5462 14.2336L29.5267 12.7337C26.7374 12.7699 24.0476 13.7755 21.9185 15.5779L22.8877 16.7227ZM29.5365 14.2336C31.9789 14.2336 33.9948 15.1309 35.4146 16.8489C36.8478 18.5831 37.7365 21.2319 37.7365 24.8336H39.2365C39.2365 21.002 38.2918 17.9758 36.5708 15.8933C34.8364 13.7946 32.3774 12.7336 29.5365 12.7336V14.2336ZM37.7365 24.8336V36.7169H39.2365V24.8336H37.7365ZM38.4865 35.9669H29.5365V37.4669H38.4865V35.9669ZM30.2865 36.7169V24.6336H28.7865V36.7169H30.2865ZM30.2864 24.6371C30.2918 23.4888 29.8394 22.3856 29.0293 21.5717L27.9661 22.6299C28.4948 23.161 28.79 23.8808 28.7865 24.6301L30.2864 24.6371ZM29.0293 21.5717C28.2192 20.7578 27.1181 20.3003 25.9698 20.3003L25.9698 21.8003C26.7191 21.8003 27.4375 22.0988 27.9661 22.6299L29.0293 21.5717ZM25.2198 21.0503V21.067H26.7198V21.0503H25.2198ZM8.55306 5.46696C8.55306 7.35393 7.02337 8.88363 5.13639 8.88363V10.3836C7.85179 10.3836 10.0531 8.18236 10.0531 5.46696H8.55306ZM5.13639 8.88363C3.24942 8.88363 1.71973 7.35393 1.71973 5.46696H0.219727C0.219727 8.18236 2.42099 10.3836 5.13639 10.3836V8.88363ZM1.71973 5.46696C1.71973 3.57999 3.24942 2.05029 5.13639 2.05029V0.550293C2.42099 0.550293 0.219727 2.75156 0.219727 5.46696H1.71973ZM5.13039 2.05027C7.00668 2.06528 8.51979 3.59059 8.51973 5.46694L10.0197 5.46698C10.0198 2.76687 7.84242 0.571918 5.14239 0.550317L5.13039 2.05027ZM9.26973 6.21696H9.30306V4.71696H9.26973V6.21696Z" fill="white"/>
</svg>
