<svg width="21" height="25" viewBox="0 0 21 25" fill="none" xmlns="http://www.w3.org/2000/svg">
<path fill-rule="evenodd" clip-rule="evenodd" d="M4.87505 10.698C4.76153 10.3089 4.70538 9.90533 4.70839 9.50004C4.68997 7.94025 5.31302 6.44135 6.43168 5.3542C7.55034 4.26705 9.06642 3.68708 10.6251 3.75004C13.8542 3.75004 15.6251 5.71879 15.6251 8.35421C15.6251 11.8125 14.0938 14.7396 11.8126 14.7396C10.5521 14.7396 10.1146 13.7813 10.4063 12.5105C10.8438 10.6875 13.2292 7.65629 10.4063 7.03129C7.58339 6.40629 7.14589 9.98962 7.0938 11.6146L5.36464 18.9063C5.07409 20.5988 5.07409 22.3284 5.36464 24.0209C5.37142 24.0954 5.4243 24.1576 5.49674 24.1763C5.56918 24.195 5.64556 24.1661 5.68755 24.1042C6.72415 22.8142 7.53106 21.3554 8.07297 19.7917C8.23964 19.1875 8.85422 16.875 8.85422 16.875C9.59459 17.9578 10.8348 18.5896 12.1459 18.5521C16.4688 18.5521 19.573 13.823 19.573 8.54171C19.573 4.55212 16.1876 0.833374 11.0521 0.833374C4.6563 0.833374 1.42714 5.41671 1.42714 9.23962C1.29586 11.0726 2.07494 12.8528 3.51047 14L4.87505 10.698Z" stroke="#6C6C6C" stroke-linecap="round" stroke-linejoin="round"/>
</svg>
