<svg width="16" height="7" viewBox="0 0 16 7" fill="none" xmlns="http://www.w3.org/2000/svg">
<path d="M0.767749 6.5666C0.784266 6.56553 0.799829 6.55848 0.811532 6.54678C0.823236 6.53508 0.83028 6.51951 0.831349 6.503L1.00852 5.10378L0.831349 3.67278C0.830195 3.6555 0.822509 3.63931 0.809852 3.6275C0.797196 3.61569 0.780518 3.60913 0.763206 3.60917C0.745893 3.60913 0.729215 3.61569 0.716558 3.6275C0.703902 3.63931 0.696217 3.6555 0.695063 3.67278L0.545147 5.10378L0.681434 6.503C0.681747 6.51332 0.684402 6.52343 0.689199 6.53258C0.693996 6.54172 0.700809 6.54966 0.709123 6.55579C0.717437 6.56191 0.727035 6.56607 0.737191 6.56794C0.747347 6.56981 0.757797 6.56935 0.767749 6.5666ZM0.163544 6.03962C0.171896 6.03962 0.180167 6.03797 0.187883 6.03478C0.195599 6.03158 0.202611 6.0269 0.208517 6.02099C0.214423 6.01509 0.219107 6.00807 0.222303 6.00036C0.2255 5.99264 0.227145 5.98437 0.227145 5.97602L0.363431 5.10378L0.227145 4.22246C0.227145 4.2056 0.220444 4.18942 0.208517 4.17749C0.196589 4.16556 0.180412 4.15886 0.163544 4.15886C0.146676 4.15886 0.130499 4.16556 0.118572 4.17749C0.106644 4.18942 0.0999433 4.2056 0.0999433 4.22246L0 5.10378L0.118115 5.97602C0.119184 5.99254 0.126228 6.0081 0.137932 6.0198C0.149636 6.03151 0.165198 6.03855 0.181715 6.03962H0.163544ZM1.45373 3.40929C1.44943 3.39144 1.43925 3.37555 1.42483 3.36419C1.41041 3.35283 1.39258 3.34665 1.37422 3.34665C1.35587 3.34665 1.33804 3.35283 1.32362 3.36419C1.3092 3.37555 1.29902 3.39144 1.29472 3.40929L1.14481 5.10833L1.29472 6.74377C1.29902 6.76162 1.3092 6.7775 1.32362 6.78886C1.33804 6.80022 1.35587 6.8064 1.37422 6.8064C1.39258 6.8064 1.41041 6.80022 1.42483 6.78886C1.43925 6.7775 1.44943 6.76162 1.45373 6.74377L1.62181 5.10833L1.45373 3.40929ZM2.0443 6.8846C2.06883 6.88463 2.09244 6.8752 2.1102 6.85828C2.12797 6.84136 2.13853 6.81825 2.1397 6.79374L2.2987 5.10833L2.1397 3.36386C2.13499 3.34267 2.1232 3.32372 2.10627 3.31014C2.08934 3.29655 2.06828 3.28915 2.04657 3.28915C2.02487 3.28915 2.00381 3.29655 1.98688 3.31014C1.96994 3.32372 1.95815 3.34267 1.95344 3.36386L1.81261 5.10833L1.93073 6.78465C1.92976 6.79924 1.93215 6.81386 1.93773 6.82738C1.94331 6.84089 1.95192 6.85294 1.96289 6.8626C1.97387 6.87226 1.98692 6.87927 2.00104 6.88308C2.01515 6.8869 2.02995 6.88742 2.0443 6.8846ZM2.68031 6.91185C2.70845 6.91188 2.73552 6.90102 2.75584 6.88154C2.77616 6.86207 2.78816 6.83549 2.78933 6.80737L2.93925 5.10378L2.78933 3.48652C2.78816 3.45839 2.77616 3.43181 2.75584 3.41234C2.73552 3.39287 2.70845 3.382 2.68031 3.38203C2.65295 3.38315 2.62702 3.39451 2.60766 3.41387C2.5883 3.43323 2.57694 3.45916 2.57582 3.48652L2.44407 5.10378L2.57582 6.80737C2.57606 6.83135 2.5842 6.85459 2.59898 6.87348C2.61377 6.89237 2.63437 6.90586 2.65759 6.91185H2.68031ZM3.58888 5.0947L3.40717 2.47345C3.40172 2.44552 3.38673 2.42036 3.36477 2.40227C3.3428 2.38418 3.31523 2.37429 3.28678 2.37429C3.25833 2.37429 3.23076 2.38418 3.2088 2.40227C3.18684 2.42036 3.17184 2.44552 3.16639 2.47345L3.04374 5.10378L3.16639 6.80737C3.17184 6.83529 3.18684 6.86046 3.2088 6.87855C3.23076 6.89664 3.25833 6.90653 3.28678 6.90653C3.31523 6.90653 3.3428 6.89664 3.36477 6.87855C3.38673 6.86046 3.40172 6.83529 3.40717 6.80737L3.58888 5.0947ZM3.97049 6.91185C4.00507 6.91072 4.03792 6.89648 4.06239 6.87201C4.08685 6.84755 4.10109 6.81469 4.10223 6.78011L4.23397 5.09016L4.10223 1.85562C4.10109 1.82104 4.08685 1.78818 4.06239 1.76372C4.03792 1.73925 4.00507 1.72501 3.97049 1.72387C3.93591 1.72501 3.90305 1.73925 3.87859 1.76372C3.85412 1.78818 3.83988 1.82104 3.83874 1.85562L3.72063 5.09016L3.80694 6.78465C3.8057 6.8033 3.8083 6.822 3.81459 6.8396C3.82088 6.8572 3.83072 6.87332 3.8435 6.88695C3.85628 6.90059 3.87173 6.91145 3.88889 6.91886C3.90604 6.92627 3.92454 6.93007 3.94323 6.93003L3.97049 6.91185ZM4.62012 1.46039C4.58192 1.46153 4.54561 1.47721 4.51859 1.50423C4.49157 1.53125 4.47589 1.56756 4.47475 1.60576L4.31575 5.10833L4.44295 6.78465C4.44409 6.82285 4.45977 6.85916 4.48679 6.88618C4.51381 6.9132 4.55012 6.92889 4.58832 6.93003C4.6273 6.93004 4.66476 6.91487 4.69275 6.88773C4.72074 6.8606 4.73705 6.82362 4.73823 6.78465L4.86089 5.11287L4.73823 1.6103C4.73884 1.59061 4.73556 1.571 4.72858 1.55258C4.7216 1.53415 4.71106 1.51729 4.69756 1.50295C4.68406 1.4886 4.66786 1.47706 4.6499 1.46898C4.63193 1.46089 4.61255 1.45643 4.59286 1.45584L4.62012 1.46039ZM5.2743 6.91185C5.31689 6.91187 5.35782 6.89527 5.38836 6.86557C5.41891 6.83588 5.43666 6.79544 5.43784 6.75285L5.55141 5.09016L5.43784 1.45584C5.43784 1.41307 5.42085 1.37205 5.3906 1.34181C5.36036 1.31156 5.31934 1.29457 5.27657 1.29457C5.2338 1.29457 5.19277 1.31156 5.16253 1.34181C5.13228 1.37205 5.11529 1.41307 5.11529 1.45584L5.01535 5.09016L5.08804 6.78465C5.09146 6.82442 5.10971 6.86144 5.13916 6.88837C5.16862 6.91531 5.20713 6.93017 5.24704 6.93003L5.2743 6.91185ZM5.93756 6.91185C5.98298 6.9107 6.02622 6.89215 6.05835 6.86002C6.09048 6.82789 6.10904 6.78465 6.11019 6.73923L6.21467 5.09016L6.11019 1.56033C6.11019 1.51394 6.09176 1.46946 6.05896 1.43666C6.02616 1.40386 5.98167 1.38543 5.93529 1.38543C5.8889 1.38543 5.84441 1.40386 5.81161 1.43666C5.77881 1.46946 5.76039 1.51394 5.76039 1.56033L5.66953 5.09016L5.76039 6.73923C5.75641 6.78413 5.7697 6.82887 5.79755 6.86432C5.82541 6.89977 5.86573 6.92327 5.9103 6.93003L5.93756 6.91185ZM6.88702 5.0947L6.79162 1.69207C6.79162 1.64207 6.77176 1.59412 6.7364 1.55876C6.70105 1.52341 6.65309 1.50354 6.60309 1.50354C6.55309 1.50354 6.50514 1.52341 6.46978 1.55876C6.43442 1.59412 6.41456 1.64207 6.41456 1.69207L6.33279 5.0947L6.41456 6.73014C6.41456 6.78014 6.43442 6.82809 6.46978 6.86345C6.50514 6.89881 6.55309 6.91867 6.60309 6.91867C6.65309 6.91867 6.70105 6.89881 6.7364 6.86345C6.77176 6.82809 6.79162 6.78014 6.79162 6.73014L6.88702 5.0947ZM7.27317 6.91185C7.32661 6.91187 7.37793 6.89095 7.41614 6.85359C7.45435 6.81623 7.47641 6.7654 7.4776 6.71197L7.56391 5.08561L7.4776 1.0379C7.4776 0.984282 7.4563 0.932863 7.41839 0.894951C7.38047 0.857039 7.32905 0.835739 7.27544 0.835739C7.22182 0.835739 7.1704 0.857039 7.13249 0.894951C7.09458 0.932863 7.07328 0.984282 7.07328 1.0379L6.99605 5.08107L7.04148 6.73468C7.04267 6.78811 7.06473 6.83895 7.10294 6.87631C7.14115 6.91367 7.19247 6.93458 7.24591 6.93457L7.27317 6.91185ZM7.94097 0.456408C7.88471 0.457569 7.83107 0.480437 7.79128 0.52023C7.75148 0.560023 7.72862 0.61366 7.72746 0.669924L7.64114 5.08107L7.72746 6.68471C7.72746 6.74194 7.75019 6.79683 7.79066 6.8373C7.83113 6.87776 7.88601 6.9005 7.94324 6.9005C8.00047 6.9005 8.05536 6.87776 8.09583 6.8373C8.1363 6.79683 8.15903 6.74194 8.15903 6.68471L8.25443 5.08107L8.15903 0.665381C8.15113 0.608181 8.12087 0.556449 8.07488 0.521532C8.02889 0.486614 7.97093 0.471362 7.91371 0.479122L7.94097 0.456408ZM8.55426 6.91185H13.9467C14.2369 6.91238 14.5237 6.84837 14.7861 6.72445C15.0486 6.60053 15.2803 6.41981 15.4643 6.19536C15.6483 5.97091 15.7802 5.70835 15.8503 5.42668C15.9204 5.14502 15.927 4.85129 15.8696 4.56676C15.8122 4.28223 15.6923 4.01402 15.5185 3.78154C15.3447 3.54906 15.1214 3.35813 14.8647 3.22257C14.6081 3.087 14.3245 3.01019 14.0345 2.9977C13.7445 2.98521 13.4554 3.03735 13.188 3.15034C13.1411 2.61679 12.9707 2.10146 12.6903 1.64511C12.4099 1.18876 12.0272 0.803902 11.5724 0.520979C11.1176 0.238056 10.6032 0.0648225 10.0699 0.0149812C9.53666 -0.03486 8.99909 0.0400581 8.49975 0.233807C8.35437 0.292865 8.31349 0.347379 8.31349 0.465494V6.70288C8.31421 6.7603 8.33582 6.81549 8.37428 6.85813C8.41274 6.90078 8.46542 6.92795 8.52246 6.93457L8.55426 6.91185Z" fill="white"/>
</svg>
