<svg width="30" height="40" viewBox="0 0 30 40" fill="none" xmlns="http://www.w3.org/2000/svg">
<path fill-rule="evenodd" clip-rule="evenodd" d="M1.2168 6.25C1.2168 3.48858 3.45537 1.25 6.2168 1.25C8.97822 1.25 11.2168 3.48858 11.2168 6.25V9.58333H23.8001C26.5616 9.58333 28.8001 11.8219 28.8001 14.5833C28.8001 17.3448 26.5616 19.5833 23.8001 19.5833H11.2168V23.75C11.2168 26.5114 13.4554 28.75 16.2168 28.75H23.8001C26.5616 28.75 28.8001 30.9886 28.8001 33.75C28.8001 36.5114 26.5616 38.75 23.8001 38.75H14.5501C7.18633 38.75 1.2168 32.7805 1.2168 25.4167L1.2168 6.25Z" stroke="white" stroke-width="1.5" stroke-linecap="round" stroke-linejoin="round"/>
</svg>
