<svg width="39" height="32" viewBox="0 0 39 32" fill="none" xmlns="http://www.w3.org/2000/svg">
<path fill-rule="evenodd" clip-rule="evenodd" d="M38.0791 7.18343L34.5791 5.68343L36.4124 1.68343L32.1458 3.1001C30.7868 1.83331 29.0035 1.12001 27.1458 1.1001C23.0074 1.10926 19.6549 4.46176 19.6458 8.6001V10.2668C13.7458 11.4834 8.59577 8.26676 3.81243 2.76676C2.9791 7.21121 3.81243 10.5445 6.31243 12.7668L0.829102 11.9334C1.26631 15.5767 4.24935 18.3843 7.91243 18.6001L3.3291 20.2668C4.99577 23.6001 8.0291 24.1168 12.0791 24.4334C8.7688 26.6912 4.83506 27.8568 0.829102 27.7668C22.0958 37.2168 34.5791 23.3334 34.5791 11.1001V9.71676L38.0791 7.18343Z" stroke="white" stroke-width="1.5" stroke-linecap="round" stroke-linejoin="round"/>
</svg>
