<svg width="40" height="36" viewBox="0 0 40 36" fill="none" xmlns="http://www.w3.org/2000/svg">
<path fill-rule="evenodd" clip-rule="evenodd" d="M1.4502 10.5499L2.96686 12.5499C2.96686 12.5499 6.11686 10.0666 7.16686 11.3333C8.21686 12.5999 12.2002 27.4833 13.5335 30.2499C14.7002 32.6666 17.9169 35.8666 21.4335 33.5833C24.9502 31.2999 36.6669 21.3333 38.7669 9.49993C40.8669 -2.33341 24.6835 0.166591 22.9669 10.4499C27.2502 7.88326 29.5335 11.4999 27.3502 15.5833C25.1669 19.6666 23.1669 22.3499 22.1169 22.3499C21.0669 22.3499 20.2002 19.6666 19.0502 14.8166C17.9002 9.96659 17.8169 0.949925 12.6669 1.96659C7.83353 2.99993 1.4502 10.5499 1.4502 10.5499Z" stroke="white" stroke-width="1.5" stroke-linecap="round" stroke-linejoin="round"/>
</svg>
