<svg width="25" height="25" viewBox="0 0 25 25" fill="none" xmlns="http://www.w3.org/2000/svg">
  <path d="M4.36458 4.16663V4.66663V4.16663ZM9.89583 16.6041H9.39583C9.39583 16.7868 9.49548 16.955 9.65573 17.0427C9.81598 17.1304 10.0113 17.1238 10.1652 17.0253L9.89583 16.6041ZM9.89583 7.58329L10.1652 7.16208C10.0113 7.06364 9.81598 7.05698 9.65573 7.14472C9.49548 7.23245 9.39583 7.4006 9.39583 7.58329H9.89583ZM16.9479 12.0937L17.2173 12.5149C17.361 12.423 17.4479 12.2643 17.4479 12.0937C17.4479 11.9232 17.361 11.7644 17.2173 11.6725L16.9479 12.0937ZM24.7188 7.74996C24.7188 5.4948 22.8906 3.66663 20.6354 3.66663V4.66663C22.3383 4.66663 23.7188 6.04708 23.7188 7.74996H24.7188ZM20.6354 3.66663H4.36458V4.66663H20.6354V3.66663ZM4.36458 3.66663C2.10942 3.66663 0.28125 5.4948 0.28125 7.74996H1.28125C1.28125 6.04708 2.66171 4.66663 4.36458 4.66663V3.66663ZM0.28125 7.74996V17.25H1.28125V7.74996H0.28125ZM0.28125 17.25C0.28125 18.3329 0.711457 19.3715 1.47723 20.1373L2.18434 19.4302C1.6061 18.852 1.28125 18.0677 1.28125 17.25H0.28125ZM1.47723 20.1373C2.243 20.9031 3.28162 21.3333 4.36458 21.3333V20.3333C3.54683 20.3333 2.76257 20.0084 2.18434 19.4302L1.47723 20.1373ZM4.36458 21.3333H20.6354V20.3333H4.36458V21.3333ZM20.6354 21.3333C22.8906 21.3333 24.7188 19.5051 24.7188 17.25H23.7188C23.7188 18.9528 22.3383 20.3333 20.6354 20.3333V21.3333ZM24.7188 17.25V7.74996H23.7188V17.25H24.7188ZM10.3958 16.6041V7.58329H9.39583V16.6041H10.3958ZM9.62643 8.00451L16.6785 12.5149L17.2173 11.6725L10.1652 7.16208L9.62643 8.00451ZM16.6785 11.6725L9.62643 16.1829L10.1652 17.0253L17.2173 12.5149L16.6785 11.6725Z" fill="#6C6C6C"/>
</svg>