<svg width="11" height="11" viewBox="0 0 11 11" fill="none" xmlns="http://www.w3.org/2000/svg">
<path fill-rule="evenodd" clip-rule="evenodd" d="M3.93835 1.12063C3.93835 0.971438 3.95348 0.882062 4.20785 0.882062H7.63023C8.22835 0.882062 8.55698 1.39081 8.79554 2.34644L8.9901 3.10956H9.5731C9.6776 0.941875 9.76766 0 9.76766 0C9.76766 0 8.30329 0.165 7.43566 0.165H3.05629L0.711914 0.089375V0.717062L1.50254 0.866938C2.05598 0.976938 2.19004 1.09381 2.23541 1.60256C2.23541 1.60256 2.28354 3.10131 2.28354 5.56256C2.28354 8.03069 2.24229 9.50881 2.24229 9.50881C2.24229 9.95569 2.06354 10.1207 1.51354 10.2307L0.722914 10.3819V11.0007L3.07416 10.9251H6.99291C7.87979 10.9251 9.92166 11.0007 9.92166 11.0007C9.96979 10.4644 10.2654 8.03069 10.3135 7.76256H9.76354L9.17916 9.09631C8.71854 10.1413 8.04479 10.2169 7.29541 10.2169H5.0466C4.29929 10.2169 3.93973 9.92131 3.93973 9.27506V5.86437C3.93973 5.86437 5.59935 5.86438 6.13766 5.90906C6.55704 5.93863 6.81004 6.05825 6.94479 6.64125L7.12354 7.41813H7.76979L7.72854 5.46012L7.81791 3.487H7.17854L6.97229 4.35325C6.84166 4.9225 6.75229 5.027 6.16791 5.08681C5.40479 5.16244 3.96104 5.14869 3.96104 5.14869V1.12063H3.93835Z" fill="white"/>
</svg>