<svg width="15" height="8" viewBox="0 0 15 8" fill="none" xmlns="http://www.w3.org/2000/svg">
<path d="M11.6958 7.04875C13.5206 7.04875 14.9999 5.56943 14.9999 3.74459C14.9999 1.91975 13.5206 0.44043 11.6958 0.44043C9.87092 0.44043 8.3916 1.91975 8.3916 3.74459C8.3916 5.56943 9.87092 7.04875 11.6958 7.04875Z" fill="white"/>
<path d="M6.60832 3.74459C6.60832 4.39809 6.41454 5.03692 6.05147 5.58028C5.6884 6.12365 5.17236 6.54715 4.56861 6.79724C3.96485 7.04732 3.3005 7.11275 2.65955 6.98526C2.01861 6.85777 1.42986 6.54308 0.967768 6.08098C0.505673 5.61889 0.190982 5.03014 0.0634899 4.3892C-0.0640018 3.74825 0.0014319 3.0839 0.251516 2.48014C0.5016 1.87639 0.925102 1.36035 1.46847 0.997281C2.01183 0.634215 2.65066 0.44043 3.30416 0.44043C4.18048 0.44043 5.02091 0.788546 5.64055 1.4082C6.2602 2.02785 6.60832 2.86827 6.60832 3.74459Z" fill="white"/>
</svg>