<svg width="15" height="15" viewBox="0 0 15 15" fill="none" xmlns="http://www.w3.org/2000/svg">
<path d="M7.50006 0C3.35844 0 0 3.44278 0 7.68987C0 11.0875 2.149 13.97 5.129 14.9868C5.50384 15.058 5.64144 14.82 5.64144 14.6168C5.64144 14.4335 5.6345 13.8277 5.63125 13.1852C3.54472 13.6503 3.10445 12.2778 3.10445 12.2778C2.76328 11.389 2.2717 11.1527 2.2717 11.1527C1.59123 10.6754 2.323 10.6852 2.323 10.6852C3.07613 10.7394 3.47269 11.4777 3.47269 11.4777C4.14162 12.6532 5.22725 12.3134 5.65522 12.1169C5.72253 11.6199 5.91691 11.2807 6.13141 11.0886C4.46553 10.8942 2.71434 10.2348 2.71434 7.28825C2.71434 6.44869 3.00733 5.76269 3.48709 5.22419C3.40922 5.0305 3.1525 4.24834 3.55975 3.18913C3.55975 3.18913 4.18956 2.98246 5.62281 3.97738C6.22106 3.807 6.86269 3.72153 7.50006 3.71863C8.13744 3.72153 8.77956 3.807 9.37894 3.97738C10.8104 2.98246 11.4394 3.18913 11.4394 3.18913C11.8476 4.24834 11.5908 5.0305 11.5129 5.22419C11.9938 5.76269 12.2848 6.44869 12.2848 7.28825C12.2848 10.2418 10.5303 10.8921 8.86016 11.0825C9.12916 11.3211 9.36888 11.7891 9.36888 12.5066C9.36888 13.5355 9.36019 14.3636 9.36019 14.6168C9.36019 14.8215 9.49519 15.0613 9.87534 14.9858C12.8538 13.9678 15 11.0863 15 7.68987C15 3.44278 11.6421 0 7.50006 0Z" fill="white"/>
</svg>
