<svg width="16" height="8" viewBox="0 0 16 8" fill="none" xmlns="http://www.w3.org/2000/svg">
<path fill-rule="evenodd" clip-rule="evenodd" d="M0.999969 0.532227C1.25816 0.532227 1.46747 0.741532 1.46747 0.999724V6.6097C1.46747 6.86789 1.25816 7.0772 0.999969 7.0772C0.741777 7.0772 0.532471 6.86789 0.532471 6.6097V0.999724C0.532471 0.741532 0.741777 0.532227 0.999969 0.532227Z" fill="white"/>
<path fill-rule="evenodd" clip-rule="evenodd" d="M2.26368 0.53857C2.48927 0.501154 2.70882 0.632413 2.78264 0.848838L4.24421 5.13357L5.64201 0.854601C5.71337 0.636142 5.93293 0.501952 6.15989 0.538083C6.38685 0.574214 6.55389 0.769948 6.55389 0.999767V6.60974C6.55389 6.86793 6.34459 7.07724 6.08639 7.07724C5.8282 7.07724 5.6189 6.86793 5.6189 6.60974V3.93642L4.69819 6.75491C4.63573 6.94611 4.45798 7.07592 4.25684 7.07723C4.0557 7.07854 3.87628 6.95104 3.81134 6.76067L2.80768 3.81834V6.60974C2.80768 6.86793 2.59837 7.07724 2.34018 7.07724C2.08199 7.07724 1.87268 6.86793 1.87268 6.60974V0.999767C1.87268 0.771098 2.0381 0.575987 2.26368 0.53857Z" fill="white"/>
<path fill-rule="evenodd" clip-rule="evenodd" d="M6.95898 0.999724C6.95898 0.741532 7.16829 0.532227 7.42648 0.532227H9.29647C10.2432 0.532227 11.0106 1.29968 11.0106 2.24639V5.36304C11.0106 6.30974 10.2432 7.0772 9.29647 7.0772H7.42648C7.16829 7.0772 6.95898 6.86789 6.95898 6.6097V0.999724ZM7.89398 1.46722V6.1422H9.29647C9.72679 6.1422 10.0756 5.79336 10.0756 5.36304V2.24639C10.0756 1.81607 9.72679 1.46722 9.29647 1.46722H7.89398Z" fill="white"/>
<path fill-rule="evenodd" clip-rule="evenodd" d="M11.4158 2.86984C11.4158 2.61165 11.6251 2.40234 11.8833 2.40234H13.7533C14.7 2.40234 15.4674 3.1698 15.4674 4.1165V5.36316C15.4674 6.30987 14.7 7.07732 13.7533 7.07732H11.8833C11.6251 7.07732 11.4158 6.86802 11.4158 6.60982V2.86984ZM12.3508 3.33734V6.14233H13.7533C14.1836 6.14233 14.5324 5.79348 14.5324 5.36316V4.1165C14.5324 3.68618 14.1836 3.33734 13.7533 3.33734H12.3508Z" fill="white"/>
<path fill-rule="evenodd" clip-rule="evenodd" d="M11.8833 0.532227C12.1415 0.532227 12.3508 0.741532 12.3508 0.999724V2.86972C12.3508 3.12791 12.1415 3.33721 11.8833 3.33721C11.6251 3.33721 11.4158 3.12791 11.4158 2.86972V0.999724C11.4158 0.741532 11.6251 0.532227 11.8833 0.532227Z" fill="white"/>
</svg>